<svg xmlns="http://www.w3.org/2000/svg" style="display: none;">
  <!-- Home/List Navigation -->
  <symbol id="home" viewBox="0 0 24 24" fill="currentColor">
    <path d="M10 20v-6h4v6h5v-8h3L12 3 2 12h3v8z"/>
  </symbol>
  
  <symbol id="list" viewBox="0 0 24 24" fill="currentColor">
    <path d="M3 13h2v-2H3v2zm0 4h2v-2H3v2zm0-8h2V7H3v2zm4 4h14v-2H7v2zm0 4h14v-2H7v2zM7 7v2h14V7H7z"/>
  </symbol>
  
  <!-- Media Controls -->
  <symbol id="play" viewBox="0 0 24 24" fill="currentColor">
    <path d="M8 5v14l11-7z"/>
  </symbol>
  
  <symbol id="record" viewBox="0 0 24 24" fill="currentColor">
    <circle cx="12" cy="12" r="8"/>
  </symbol>
  
  <symbol id="stop" viewBox="0 0 24 24" fill="currentColor">
    <path d="M6 6h12v12H6z"/>
  </symbol>
  
  <symbol id="upload" viewBox="0 0 24 24" fill="currentColor">
    <path d="M9 16h6v-6h4l-7-7-7 7h4zm-4 2h14v2H5z"/>
  </symbol>
  
  <symbol id="camera" viewBox="0 0 24 24" fill="currentColor">
    <path d="M12 12m-3.2 0a3.2 3.2 0 1 1 6.4 0a3.2 3.2 0 1 1 -6.4 0"/>
    <path d="M9 2L7.17 4H4c-1.1 0-2 .9-2 2v12c0 1.1.9 2 2 2h16c1.1 0 2-.9 2-2V6c0-1.1-.9-2-2-2h-3.17L15 2H9zm3 15c-2.76 0-5-2.24-5-5s2.24-5 5-5 5 2.24 5 5-2.24 5-5 5z"/>
  </symbol>
  
  <!-- Content Actions -->
  <symbol id="comment" viewBox="0 0 24 24" fill="currentColor">
    <path d="M21.99 4c0-1.1-.89-2-2-2H4c-1.1 0-2 .9-2 2v12c0 1.1.9 2 2 2h14l4 4-.01-18zM18 14H6v-2h12v2zm0-3H6V9h12v2zm0-3H6V6h12v2z"/>
  </symbol>
  
  <symbol id="edit" viewBox="0 0 24 24" fill="currentColor">
    <path d="M3 17.25V21h3.75L17.81 9.94l-3.75-3.75L3 17.25zM20.71 7.04c.39-.39.39-1.02 0-1.41l-2.34-2.34c-.39-.39-1.02-.39-1.41 0l-1.83 1.83 3.75 3.75 1.83-1.83z"/>
  </symbol>
  
  <symbol id="delete" viewBox="0 0 24 24" fill="currentColor">
    <path d="M6 19c0 1.1.9 2 2 2h8c1.1 0 2-.9 2-2V7H6v12zM19 4h-3.5l-1-1h-5l-1 1H5v2h14V4z"/>
  </symbol>
  
  <symbol id="save" viewBox="0 0 24 24" fill="currentColor">
    <path d="M17 3H5c-1.11 0-2 .9-2 2v14c0 1.1.89 2 2 2h14c1.1 0 2-.9 2-2V7l-4-4zm-5 16c-1.66 0-3-1.34-3-3s1.34-3 3-3 3 1.34 3 3-1.34 3-3 3zm3-10H5V5h10v4z"/>
  </symbol>
  
  <!-- Navigation -->
  <symbol id="back" viewBox="0 0 24 24" fill="currentColor">
    <path d="M20 11H7.83l5.59-5.59L12 4l-8 8 8 8 1.41-1.41L7.83 13H20v-2z"/>
  </symbol>
  
  <symbol id="next" viewBox="0 0 24 24" fill="currentColor">
    <path d="M4 11h12.17l-5.59 5.59L12 20l8-8-8-8-1.41 1.41L16.17 11H4v2z"/>
  </symbol>
  
  <!-- Info & Settings -->
  <symbol id="info" viewBox="0 0 24 24" fill="currentColor">
    <path d="M12 2C6.48 2 2 6.48 2 12s4.48 10 10 10 10-4.48 10-10S17.52 2 12 2zm1 15h-2v-6h2v6zm0-8h-2V7h2v2z"/>
  </symbol>
  
  <symbol id="settings" viewBox="0 0 24 24" fill="currentColor">
    <path d="M19.14,12.94c0.04-0.3,0.06-0.61,0.06-0.94c0-0.32-0.02-0.64-0.07-0.94l2.03-1.58c0.18-0.14,0.23-0.41,0.12-0.61 l-1.92-3.32c-0.12-0.22-0.37-0.29-0.59-0.22l-2.39,0.96c-0.5-0.38-1.03-0.7-1.62-0.94L14.4,2.81c-0.04-0.24-0.24-0.41-0.48-0.41 h-3.84c-0.24,0-0.43,0.17-0.47,0.41L9.25,5.35C8.66,5.59,8.12,5.92,7.63,6.29L5.24,5.33c-0.22-0.08-0.47,0-0.59,0.22L2.74,8.87 C2.62,9.08,2.66,9.34,2.86,9.48l2.03,1.58C4.84,11.36,4.8,11.69,4.8,12s0.02,0.64,0.07,0.94l-2.03,1.58 c-0.18,0.14-0.23,0.41-0.12,0.61l1.92,3.32c0.12,0.22,0.37,0.29,0.59,0.22l2.39-0.96c0.5,0.38,1.03,0.7,1.62,0.94l0.36,2.54 c0.05,0.24,0.24,0.41,0.48,0.41h3.84c0.24,0,0.44-0.17,0.47-0.41l0.36-2.54c0.59-0.24,1.13-0.56,1.62-0.94l2.39,0.96 c0.22,0.08,0.47,0,0.59-0.22l1.92-3.32c0.12-0.22,0.07-0.47-0.12-0.61L19.14,12.94z M12,15.6c-1.98,0-3.6-1.62-3.6-3.6 s1.62-3.6,3.6-3.6s3.6,1.62,3.6,3.6S13.98,15.6,12,15.6z"/>
  </symbol>
  
  <!-- New Exercise (plus) -->
  <symbol id="new-ex" viewBox="0 0 24 24" fill="currentColor">
    <path d="M19 13h-6v6h-2v-6H5v-2h6V5h2v6h6v2z"/>
  </symbol>
</svg>
